<svg width="146" height="32" viewBox="0 0 146 32" fill="none" xmlns="http://www.w3.org/2000/svg">
<path d="M12.6774 27.9071V8.13624H3.27564C1.46655 8.13624 0 6.66968 0 4.86059V3.57374C0 1.76465 1.46656 0.298096 3.27564 0.298096H9.40179C11.2109 0.298096 12.6774 1.76465 12.6774 3.57374V8.13624H27.0927C28.9018 8.13624 30.3683 9.60279 30.3683 11.4119V24.6314C30.3683 26.4405 28.9018 27.9071 27.0927 27.9071H12.6774Z" fill="black"/>
<mask id="mask0_16_5082" style="mask-type:luminance" maskUnits="userSpaceOnUse" x="58" y="22" width="10" height="10">
<path fill-rule="evenodd" clip-rule="evenodd" d="M58.3245 22.1538H67.1649V31.0375H58.3245V22.1538Z" fill="white"/>
</mask>
<g mask="url(#mask0_16_5082)">
<path fill-rule="evenodd" clip-rule="evenodd" d="M58.3245 28.8856V22.1538L67.1649 31.0376V24.3057C67.1649 23.1172 66.1754 22.1538 64.9547 22.1538C63.7342 22.1538 62.7447 23.1172 62.7447 24.3057V28.8856C62.7447 30.074 61.7552 31.0376 60.5346 31.0376H60.5345C59.314 31.0376 58.3245 30.074 58.3245 28.8856" fill="black"/>
</g>
<path fill-rule="evenodd" clip-rule="evenodd" d="M77.1253 26.2488C77.2378 25.508 77.8111 25.0698 78.6202 25.0959C79.365 25.122 79.906 25.5759 79.965 26.2488H77.1253ZM78.8345 24.1882C77.4789 24.0421 76.3323 24.8611 76.1019 26.1653C75.9627 26.9531 76.1126 27.6834 76.6538 28.3094C77.4575 29.238 78.9898 29.4206 80.0508 28.7215C80.3562 28.5181 80.6079 28.2572 80.7901 27.9286C80.5168 27.7929 80.2543 27.6678 79.9971 27.5374C79.9811 27.5478 79.9703 27.553 79.9649 27.5635C79.5203 28.2312 78.5344 28.3668 77.87 28.0695C77.4361 27.8712 77.2057 27.5217 77.1146 27.0574H80.9937C80.9937 26.8174 81.0044 26.6036 80.9884 26.3896C80.9133 25.1898 80.0615 24.3186 78.8345 24.1882V24.1882Z" fill="black"/>
<mask id="mask1_16_5082" style="mask-type:luminance" maskUnits="userSpaceOnUse" x="92" y="24" width="6" height="6">
<path fill-rule="evenodd" clip-rule="evenodd" d="M92.5977 24.1725H97.7092V29.1442H92.5977V24.1725Z" fill="white"/>
</mask>
<g mask="url(#mask1_16_5082)">
<path fill-rule="evenodd" clip-rule="evenodd" d="M95.3249 28.1997C94.5319 28.2987 93.7817 27.7511 93.6531 26.979C93.6371 26.8746 93.6264 26.7651 93.6157 26.6607C93.621 25.7426 94.3282 25.0748 95.2444 25.1113C96.0642 25.1479 96.6964 25.8312 96.6911 26.6711C96.6804 27.4745 96.1231 28.1006 95.3249 28.1997M95.132 24.1724C93.68 24.1776 92.5977 25.2418 92.5977 26.6607C92.6031 28.085 93.696 29.1492 95.1534 29.144C96.6214 29.1388 97.7092 28.0693 97.7092 26.6452C97.7038 25.2261 96.6054 24.1671 95.132 24.1724" fill="black"/>
</g>
<mask id="mask2_16_5082" style="mask-type:luminance" maskUnits="userSpaceOnUse" x="58" y="22" width="40" height="10">
<path fill-rule="evenodd" clip-rule="evenodd" d="M58.3245 31.0376H97.7091V22.1538H58.3245V31.0376Z" fill="white"/>
</mask>
<g mask="url(#mask2_16_5082)">
<path fill-rule="evenodd" clip-rule="evenodd" d="M90.6379 29.0137H91.6399V24.3029H90.6379V29.0137Z" fill="black"/>
<path fill-rule="evenodd" clip-rule="evenodd" d="M91.2114 22.1641C90.8364 22.1641 90.531 22.4614 90.531 22.8266C90.531 23.1917 90.8364 23.4891 91.2114 23.4891C91.5865 23.4891 91.8919 23.1917 91.8919 22.8266C91.8919 22.4614 91.5865 22.1641 91.2114 22.1641" fill="black"/>
<path fill-rule="evenodd" clip-rule="evenodd" d="M84.9317 24.3029L83.8119 25.8314L82.6813 24.3029H81.4597L83.1957 26.6661L81.4597 29.0188L82.6974 29.0137L83.8119 27.506L84.921 29.0137L86.1586 29.0188L84.4226 26.6661L86.1586 24.3029H84.9317Z" fill="black"/>
<path fill-rule="evenodd" clip-rule="evenodd" d="M72.6996 24.1725C72.1209 24.1725 71.5958 24.3447 71.1833 24.6421V24.1725H70.1707V29.0189H71.1833V26.6557C71.1887 25.7428 71.8959 25.0698 72.8121 25.1115C73.6265 25.1481 74.2587 25.8211 74.2587 26.6557L74.2641 29.0189H75.2768V26.6401C75.2714 25.2264 74.173 24.1673 72.6996 24.1725" fill="black"/>
<path fill-rule="evenodd" clip-rule="evenodd" d="M88.0019 22.1641H86.9839V24.3395C86.9839 24.6473 86.9893 24.9237 86.9893 25.122V26.5253H86.9839V26.541C86.9893 27.9547 88.0823 29.0138 89.5504 29.0242V28.0851H89.4593C88.6395 28.0486 88.0073 27.3704 88.0073 26.5305V25.2732H89.545V24.2977H87.9965V22.1641H88.0019Z" fill="black"/>
</g>
<path d="M52.7628 24.1086H53.2906L51.1794 29.4451C50.9905 29.9273 50.7233 30.3052 50.378 30.5789C50.0326 30.859 49.6547 30.9828 49.2442 30.9503V30.4909C49.557 30.517 49.8372 30.4257 50.0848 30.2172C50.3389 30.0152 50.5441 29.7253 50.7005 29.3474L50.808 29.0835L48.5601 24.1086H49.0878L51.0621 28.458L52.7628 24.1086Z" fill="black"/>
<path d="M45.6669 24.001C46.3707 24.001 46.9669 24.2487 47.4555 24.7439C47.9508 25.2325 48.1984 25.8353 48.1984 26.552C48.1984 27.2687 47.9508 27.8747 47.4555 28.3699C46.9669 28.8586 46.3707 29.1029 45.6669 29.1029C45.2043 29.1029 44.7873 28.9922 44.4159 28.7706C44.051 28.5491 43.7676 28.2461 43.5656 27.8617V28.9954H43.0769V22.1538H43.5656V25.2423C43.7676 24.8579 44.051 24.5549 44.4159 24.3334C44.7873 24.1118 45.2043 24.001 45.6669 24.001ZM44.1618 28.0278C44.5658 28.4318 45.0577 28.6338 45.6376 28.6338C46.2175 28.6338 46.7062 28.4318 47.1037 28.0278C47.5077 27.6239 47.7097 27.1319 47.7097 26.552C47.7097 25.9721 47.5077 25.4801 47.1037 25.0762C46.7062 24.6722 46.2175 24.4702 45.6376 24.4702C45.0577 24.4702 44.5658 24.6722 44.1618 25.0762C43.7643 25.4801 43.5656 25.9721 43.5656 26.552C43.5656 27.1319 43.7643 27.6239 44.1618 28.0278Z" fill="black"/>
<path d="M139.714 4.66455C141.199 4.66455 142.464 5.23059 143.508 6.36268C144.566 7.48006 145.096 8.85474 145.096 10.4867C145.096 12.1187 144.566 13.5007 143.508 14.6328C142.464 15.7502 141.199 16.3089 139.714 16.3089C138.171 16.3089 136.98 15.7722 136.142 14.6989V20.4108H133.297V4.9733H136.142V6.27446C136.98 5.20119 138.171 4.66455 139.714 4.66455ZM137.002 12.7362C137.575 13.3096 138.303 13.5963 139.185 13.5963C140.067 13.5963 140.795 13.3096 141.368 12.7362C141.957 12.1481 142.251 11.3983 142.251 10.4867C142.251 9.57515 141.957 8.83268 141.368 8.25929C140.795 7.67119 140.067 7.37714 139.185 7.37714C138.303 7.37714 137.575 7.67119 137.002 8.25929C136.428 8.83268 136.142 9.57515 136.142 10.4867C136.142 11.3983 136.428 12.1481 137.002 12.7362Z" fill="black"/>
<path d="M125.91 4.66455C127.394 4.66455 128.659 5.23059 129.703 6.36268C130.761 7.48006 131.291 8.85474 131.291 10.4867C131.291 12.1187 130.761 13.5007 129.703 14.6328C128.659 15.7502 127.394 16.3089 125.91 16.3089C124.366 16.3089 123.175 15.7722 122.337 14.6989V20.4108H119.492V4.9733H122.337V6.27446C123.175 5.20119 124.366 4.66455 125.91 4.66455ZM123.197 12.7362C123.77 13.3096 124.498 13.5963 125.38 13.5963C126.262 13.5963 126.99 13.3096 127.564 12.7362C128.152 12.1481 128.446 11.3983 128.446 10.4867C128.446 9.57515 128.152 8.83268 127.564 8.25929C126.99 7.67119 126.262 7.37714 125.38 7.37714C124.498 7.37714 123.77 7.67119 123.197 8.25929C122.624 8.83268 122.337 9.57515 122.337 10.4867C122.337 11.3983 122.624 12.1481 123.197 12.7362Z" fill="black"/>
<path d="M114.817 16L113.891 13.2213H107.738L106.812 16H103.526L108.929 0.5625H112.7L118.125 16H114.817ZM108.708 10.3764H112.943L110.825 4.06902L108.708 10.3764Z" fill="black"/>
<path d="M95.5478 14.6328C94.4157 15.7502 93.0337 16.3089 91.4017 16.3089C89.7698 16.3089 88.3877 15.7502 87.2557 14.6328C86.1383 13.5007 85.5796 12.1187 85.5796 10.4867C85.5796 8.85474 86.1383 7.48006 87.2557 6.36268C88.3877 5.23059 89.7698 4.66455 91.4017 4.66455C93.0337 4.66455 94.4157 5.23059 95.5478 6.36268C96.6799 7.48006 97.2459 8.85474 97.2459 10.4867C97.2459 12.1187 96.6799 13.5007 95.5478 14.6328ZM89.2625 12.67C89.8359 13.2434 90.549 13.5301 91.4017 13.5301C92.2545 13.5301 92.9675 13.2434 93.5409 12.67C94.1143 12.0966 94.401 11.3688 94.401 10.4867C94.401 9.60456 94.1143 8.87679 93.5409 8.30339C92.9675 7.73 92.2545 7.4433 91.4017 7.4433C90.549 7.4433 89.8359 7.73 89.2625 8.30339C88.7038 8.87679 88.4245 9.60456 88.4245 10.4867C88.4245 11.3688 88.7038 12.0966 89.2625 12.67Z" fill="black"/>
<path d="M76.6944 0.5625C78.8115 0.5625 80.5758 1.30497 81.9872 2.78991C83.4134 4.27486 84.1264 6.10531 84.1264 8.28126C84.1264 10.4572 83.4134 12.2877 81.9872 13.7726C80.5758 15.2576 78.8115 16 76.6944 16H70.5635V0.5625H76.6944ZM76.6944 13.0889C78.0323 13.0889 79.1203 12.6479 79.9583 11.7657C80.7964 10.8689 81.2154 9.7074 81.2154 8.28126C81.2154 6.85513 80.7964 5.70099 79.9583 4.81885C79.1203 3.922 78.0323 3.47358 76.6944 3.47358H73.6069V13.0889H76.6944Z" fill="black"/>
<path d="M61.2182 14.6328C60.0861 15.7502 58.7041 16.3089 57.0722 16.3089C55.4402 16.3089 54.0582 15.7502 52.9261 14.6328C51.8087 13.5007 51.25 12.1187 51.25 10.4867C51.25 8.85474 51.8087 7.48006 52.9261 6.36268C54.0582 5.23059 55.4402 4.66455 57.0722 4.66455C58.7041 4.66455 60.0861 5.23059 61.2182 6.36268C62.3503 7.48006 62.9164 8.85474 62.9164 10.4867C62.9164 12.1187 62.3503 13.5007 61.2182 14.6328ZM54.933 12.67C55.5063 13.2434 56.2194 13.5301 57.0722 13.5301C57.9249 13.5301 58.638 13.2434 59.2114 12.67C59.7847 12.0966 60.0714 11.3688 60.0714 10.4867C60.0714 9.60456 59.7847 8.87679 59.2114 8.30339C58.638 7.73 57.9249 7.4433 57.0722 7.4433C56.2194 7.4433 55.5063 7.73 54.933 8.30339C54.3743 8.87679 54.0949 9.60456 54.0949 10.4867C54.0949 11.3688 54.3743 12.0966 54.933 12.67Z" fill="black"/>
<path d="M52.2597 0.5625V3.47358H48.0916V16H45.0482V3.47358H40.9021V0.5625H52.2597Z" fill="black"/>
</svg>
